<?xml version="1.0" encoding="UTF-8" standalone="no"?>
<svg
   xmlns:dc="http://purl.org/dc/elements/1.1/"
   xmlns:cc="http://creativecommons.org/ns#"
   xmlns:rdf="http://www.w3.org/1999/02/22-rdf-syntax-ns#"
   xmlns:svg="http://www.w3.org/2000/svg"
   xmlns="http://www.w3.org/2000/svg"
   xmlns:sodipodi="http://sodipodi.sourceforge.net/DTD/sodipodi-0.dtd"
   xmlns:inkscape="http://www.inkscape.org/namespaces/inkscape"
   width="32mm"
   height="32mm"
   viewBox="0 0 32 32"
   version="1.1"
   id="svg8"
   inkscape:version="1.0.1 (3bc2e813f5, 2020-09-07)"
   sodipodi:docname="edit.svg">
  <defs
     id="defs2">
    <pattern
       id="EMFhbasepattern"
       patternUnits="userSpaceOnUse"
       width="6"
       height="6"
       x="0"
       y="0" />
    <pattern
       id="EMFhbasepattern-8"
       patternUnits="userSpaceOnUse"
       width="6"
       height="6"
       x="0"
       y="0" />
    <pattern
       id="EMFhbasepattern-2"
       patternUnits="userSpaceOnUse"
       width="6"
       height="6"
       x="0"
       y="0" />
    <pattern
       id="EMFhbasepattern-6"
       patternUnits="userSpaceOnUse"
       width="6"
       height="6"
       x="0"
       y="0" />
    <pattern
       id="EMFhbasepattern-21"
       patternUnits="userSpaceOnUse"
       width="6"
       height="6"
       x="0"
       y="0" />
    <pattern
       id="EMFhbasepattern-0"
       patternUnits="userSpaceOnUse"
       width="6"
       height="6"
       x="0"
       y="0" />
    <pattern
       id="EMFhbasepattern-9"
       patternUnits="userSpaceOnUse"
       width="6"
       height="6"
       x="0"
       y="0" />
    <pattern
       id="EMFhbasepattern-5"
       patternUnits="userSpaceOnUse"
       width="6"
       height="6"
       x="0"
       y="0" />
    <pattern
       id="EMFhbasepattern-1"
       patternUnits="userSpaceOnUse"
       width="6"
       height="6"
       x="0"
       y="0" />
    <pattern
       id="EMFhbasepattern-96"
       patternUnits="userSpaceOnUse"
       width="6"
       height="6"
       x="0"
       y="0" />
    <pattern
       id="EMFhbasepattern-17"
       patternUnits="userSpaceOnUse"
       width="6"
       height="6"
       x="0"
       y="0" />
    <pattern
       id="EMFhbasepattern-29"
       patternUnits="userSpaceOnUse"
       width="6"
       height="6"
       x="0"
       y="0" />
  </defs>
  <sodipodi:namedview
     id="base"
     pagecolor="#ffffff"
     bordercolor="#666666"
     borderopacity="1.0"
     inkscape:pageopacity="0.0"
     inkscape:pageshadow="2"
     inkscape:zoom="2.8284271"
     inkscape:cx="86.569576"
     inkscape:cy="70.443285"
     inkscape:document-units="mm"
     inkscape:current-layer="layer1"
     inkscape:document-rotation="0"
     showgrid="false"
     showborder="true"
     inkscape:showpageshadow="false"
     inkscape:window-width="1920"
     inkscape:window-height="1017"
     inkscape:window-x="-8"
     inkscape:window-y="-8"
     inkscape:window-maximized="1" />
  <metadata
     id="metadata5">
    <rdf:RDF>
      <cc:Work
         rdf:about="">
        <dc:format>image/svg+xml</dc:format>
        <dc:type
           rdf:resource="http://purl.org/dc/dcmitype/StillImage" />
        <dc:title />
      </cc:Work>
    </rdf:RDF>
  </metadata>
  <g
     inkscape:label="Layer 1"
     inkscape:groupmode="layer"
     id="layer1">
    <path
       style="fill:none;stroke:#000000;stroke-width:0.012648px;stroke-linecap:round;stroke-linejoin:round;stroke-miterlimit:4;stroke-dasharray:none;stroke-opacity:1"
       d="M 0.006324,31.993676 H 31.993676 V 0.006324 H 0.006324 Z"
       id="path848" />
    <path
       style="fill:none;stroke:none;stroke-width:0.012648px;stroke-linecap:round;stroke-linejoin:round;stroke-miterlimit:4;stroke-dasharray:none;stroke-opacity:1"
       d="m 12.327955,21.998279 v -2.328621 h -2.324933 v -0.49899 l 2.532982,-2.531336 2.82945,2.827611 -2.538183,2.531336 z"
       id="path850" />
    <path
       id="path876"
       style="fill:none;stroke:none;stroke-width:0.012648px;stroke-linecap:round;stroke-linejoin:round;stroke-miterlimit:4;stroke-dasharray:none;stroke-opacity:1"
       d="m 27.999159,11.072472 v 11.923787 m -3.001091,0 v -8.924648 l 3.001091,-2.999139 m -5.003551,13.924946 0.17684,-0.0052 0.17164,-0.02599 0.17164,-0.03639 0.166438,-0.05198 0.161237,-0.06757 0.156036,-0.07797 0.145633,-0.09876 0.140432,-0.103956 0.124829,-0.11955 0.119628,-0.124747 0.104023,-0.140342 0.09362,-0.145538 0.08322,-0.155934 0.06762,-0.161133 0.05201,-0.16633 0.03641,-0.171528 0.0208,-0.171528 0.0104,-0.176725 m -2.002456,5.00031 0.270462,-0.0052 0.270462,-0.02599 0.270463,-0.03639 0.265261,-0.05198 0.26526,-0.06237 0.254859,-0.07797 0.254859,-0.09356 0.249657,-0.109153 0.244456,-0.11955 0.234054,-0.135143 0.228853,-0.145539 0.21845,-0.155934 0.213248,-0.171528 0.197646,-0.181924 0.192444,-0.187121 0.182042,-0.202715 0.17164,-0.21311 0.156036,-0.218309 0.145633,-0.228704 0.135231,-0.233901 0.119628,-0.244298 0.104023,-0.249494 0.09362,-0.254694 0.08322,-0.254692 0.06241,-0.265089 0.05201,-0.265089 0.03641,-0.270286 0.0208,-0.270287 0.0104,-0.270285 M 8.9991912,24.997418 H 22.995608 m -15.9936761,-2.001159 0.010404,0.176726 0.020804,0.171527 0.03641,0.171529 0.052012,0.16633 0.067615,0.161132 0.083219,0.155935 0.093622,0.145538 0.1040237,0.140341 0.1196277,0.124748 0.1248285,0.11955 0.1404324,0.103956 0.1456332,0.09876 0.156036,0.07797 0.1612372,0.06757 0.1664384,0.05198 0.1716391,0.03639 0.1716396,0.02599 0.1716395,0.0052 m -4.9983511,-2.001172 0.010402,0.270286 0.020805,0.270287 0.036408,0.270286 0.052012,0.265089 0.062414,0.265089 0.083219,0.254692 0.093622,0.254694 0.1040237,0.249494 0.1196277,0.244298 0.1352308,0.233901 0.1456337,0.228704 0.156036,0.218309 0.1716391,0.21311 0.1820419,0.202715 0.1924444,0.187121 0.1976454,0.181923 0.2132491,0.171529 0.2184502,0.155934 0.2288526,0.145539 0.2340538,0.135143 0.2444562,0.11955 0.2496574,0.109153 0.2548585,0.09356 0.2548585,0.07797 0.265261,0.06237 0.2652609,0.05198 0.2704621,0.03639 0.2652609,0.02599 0.2704625,0.0052 m 13.9964175,-8e-6 H 8.9991912 M 7.0019319,9.0037417 V 22.996259 M 8.9991912,7.0077807 8.8275516,7.0129807 8.6559121,7.0337727 8.4842729,7.0753557 8.3178345,7.1273337 8.1565974,7.1949057 8.0005614,7.2728727 7.8549281,7.3664308 7.7144957,7.470387 7.5896672,7.5899368 7.4700395,7.7198822 7.3660158,7.8602235 7.2723938,8.005762 7.1891748,8.1616965 7.1215598,8.3228286 7.0695478,8.4891587 7.0331378,8.6554888 7.0123338,8.8322144 7.0019298,9.0037425 M 8.9991912,4.0086416 H 20.925532 L 17.929644,7.0077807 H 8.9991912 m 0,-2.9991391 -0.2704625,0.0052 -0.2652609,0.020792 -0.2704621,0.036386 -0.2652609,0.051978 -0.265261,0.067572 L 7.4076253,4.2685344 7.1527668,4.362095 6.9031094,4.4660516 6.6586532,4.590799 6.4245994,4.7207443 6.1957468,4.8662832 5.9772966,5.0274153 5.7640475,5.1937454 5.5664021,5.3756691 5.3739577,5.5679883 5.1919158,5.7707031 5.0202767,5.9786155 4.8642407,6.2021215 4.718607,6.4256275 4.5833762,6.664727 4.4637485,6.9038266 4.3597248,7.1533217 4.2661028,7.4080148 4.1828838,7.6679055 4.1204698,7.9277962 4.0684578,8.1980825 4.0320498,8.4631712 4.0112448,8.7334575 4.0008428,9.0037438 m -7e-7,13.9925152 V 9.0037417" />
    <path
       style="fill:none;stroke:none;stroke-width:0.012648px;stroke-linecap:round;stroke-linejoin:round;stroke-miterlimit:4;stroke-dasharray:none;stroke-opacity:1"
       d="m 20.753892,8.4163888 -6.803163,6.8091372 0.353681,0.353452 6.803164,-6.8091379 z"
       id="path878" />
    <path
       style="fill:none;stroke:none;stroke-width:0.012648px;stroke-linecap:round;stroke-linejoin:round;stroke-miterlimit:4;stroke-dasharray:none;stroke-opacity:1"
       d="M 13.243367,22.996259 25.117696,11.12445 20.878722,6.8830333 8.9991912,18.76004 v 4.236219 z"
       id="path880" />
    <path
       id="path886"
       style="fill:none;stroke:none;stroke-width:0.012648px;stroke-linecap:round;stroke-linejoin:round;stroke-miterlimit:4;stroke-dasharray:none;stroke-opacity:1"
       d="M 27.947146,8.296839 25.825058,10.417547 21.586084,6.1761303 M 27.947146,8.296839 27.921136,8.130509 27.884726,7.9641789 27.848316,7.7978488 27.806706,7.6367163 27.754696,7.4755842 27.702686,7.3144521 27.640276,7.1533196 27.577856,6.9973851 27.505036,6.8466486 27.432216,6.6959121 27.348996,6.5451752 27.265776,6.3996366 27.172156,6.2540977 27.078536,6.1189544 26.979716,5.9786134 26.8705,5.8486681 26.761275,5.7187227 26.65205,5.593975 26.532423,5.4692276 26.412794,5.3548758 26.282765,5.2405236 26.157936,5.1313699 26.022704,5.0274132 25.887473,4.9234571 25.74704,4.8298964 25.601407,4.7415334 25.455773,4.6531708 25.31014,4.5700057 25.159305,4.4972363 25.003269,4.4244668 24.847234,4.3620929 24.691198,4.2997194 24.529961,4.2477411 24.368724,4.1957628 24.202286,4.1541805 24.035847,4.1177945 23.87461,4.0814086 23.702971,4.0554186 m -2.116887,2.1207117 2.116887,-2.1207084" />
    <path
       style="fill:#cccccc;stroke-width:1;stroke:none;fill-opacity:1"
       d="m 34.197328,78.866976 v -7.938025 l 22.375016,-22.373968 22.375017,-22.373969 7.936975,7.936977 7.936977,7.936976 -22.37397,22.375016 -22.373967,22.375015 h -7.938024 -7.938024 z m 19.250843,-0.43782 4.871034,-4.875845 -5.435095,-5.435095 -5.435095,-5.435095 -4.875844,4.871035 c -4.808987,4.804245 -4.875843,4.885635 -4.875843,5.935937 v 1.064905 h 4.375 4.375 v 4.375 4.375 h 1.064904 c 1.050303,0 1.131694,-0.06686 5.935939,-4.875842 z m 25.744952,-45.993748 -0.7503,-0.7503 -12.927067,12.927067 -12.927068,12.927068 0.73335,0.765453 0.733351,0.765452 12.944017,-12.94222 12.944015,-12.942221 z"
       id="path923"
       transform="scale(0.26458333)" />
    <path
       style="fill:#cccccc;stroke-width:1;stroke:none;fill-opacity:1"
       d="m 89.698097,31.180768 -7.871255,-7.874231 3.872743,-3.891318 3.872743,-3.891318 0.969207,0.148573 c 4.342334,0.665651 9.413706,4.093745 12.030905,8.132524 1.18266,1.825062 2.22899,4.295108 2.64896,6.253364 l 0.28107,1.310548 -3.83705,3.843044 c -2.110372,2.113674 -3.895323,3.843044 -3.966555,3.843044 -0.07123,0 -3.671578,-3.543404 -8.000768,-7.87423 z"
       id="path925"
       transform="scale(0.26458333)" />
    <path
       style="fill:#cccccc;stroke-width:1;stroke:none;fill-opacity:1"
       d="m 29.627273,105.16325 c -1.756111,-0.42545 -4.726614,-1.77233 -6.307184,-2.85979 -2.780708,-1.91318 -5.434205,-5.287607 -6.682806,-8.498462 -1.368781,-3.519907 -1.314955,-2.153747 -1.314955,-33.375 0,-26.682896 0.03458,-29.134431 0.432741,-30.682494 1.692651,-6.581011 6.35077,-11.475396 13.067259,-13.730049 l 1.75,-0.587457 24.125,-0.06804 24.125,-0.06804 -5.49005,5.497713 -5.49005,5.497713 -17.88495,0.07033 -17.88495,0.07033 -1.420468,0.697598 c -1.643505,0.807133 -2.77582,1.994677 -3.609973,3.786053 l -0.589674,1.266349 -0.0024,28.142965 c -0.0028,32.176783 -0.182666,29.595158 2.229032,31.991945 2.426526,2.41152 -0.01303,2.24009 31.877701,2.24009 24.873123,0 27.92589,-0.0423 28.980165,-0.401525 1.60378,-0.546462 3.69246,-2.501422 4.44021,-4.155947 l 0.59545,-1.317528 0.07185,-17.761477 0.07185,-17.761478 5.496969,-5.488522 5.49698,-5.488523 -0.0792,24 c -0.0886,26.846093 0.0403,24.910865 -1.93229,29 -2.31514,4.799173 -6.935832,8.547546 -12.194714,9.892546 -1.813225,0.46374 -3.021953,0.48165 -31.158913,0.46163 -24.186267,-0.0172 -29.523595,-0.0817 -30.717565,-0.37092 z"
       id="path927"
       transform="scale(0.26458333)" />
  </g>
</svg>
