<?xml version="1.0" encoding="UTF-8" standalone="no"?>
<svg
   xmlns:dc="http://purl.org/dc/elements/1.1/"
   xmlns:cc="http://creativecommons.org/ns#"
   xmlns:rdf="http://www.w3.org/1999/02/22-rdf-syntax-ns#"
   xmlns:svg="http://www.w3.org/2000/svg"
   xmlns="http://www.w3.org/2000/svg"
   xmlns:sodipodi="http://sodipodi.sourceforge.net/DTD/sodipodi-0.dtd"
   xmlns:inkscape="http://www.inkscape.org/namespaces/inkscape"
   width="32mm"
   height="32mm"
   viewBox="0 0 32 32"
   version="1.1"
   id="svg8"
   inkscape:version="1.0.1 (3bc2e813f5, 2020-09-07)"
   sodipodi:docname="search.svg">
  <defs
     id="defs2">
    <pattern
       id="EMFhbasepattern"
       patternUnits="userSpaceOnUse"
       width="6"
       height="6"
       x="0"
       y="0" />
    <pattern
       id="EMFhbasepattern-8"
       patternUnits="userSpaceOnUse"
       width="6"
       height="6"
       x="0"
       y="0" />
    <pattern
       id="EMFhbasepattern-2"
       patternUnits="userSpaceOnUse"
       width="6"
       height="6"
       x="0"
       y="0" />
    <pattern
       id="EMFhbasepattern-6"
       patternUnits="userSpaceOnUse"
       width="6"
       height="6"
       x="0"
       y="0" />
    <pattern
       id="EMFhbasepattern-21"
       patternUnits="userSpaceOnUse"
       width="6"
       height="6"
       x="0"
       y="0" />
    <pattern
       id="EMFhbasepattern-0"
       patternUnits="userSpaceOnUse"
       width="6"
       height="6"
       x="0"
       y="0" />
    <pattern
       id="EMFhbasepattern-9"
       patternUnits="userSpaceOnUse"
       width="6"
       height="6"
       x="0"
       y="0" />
    <pattern
       id="EMFhbasepattern-5"
       patternUnits="userSpaceOnUse"
       width="6"
       height="6"
       x="0"
       y="0" />
    <pattern
       id="EMFhbasepattern-1"
       patternUnits="userSpaceOnUse"
       width="6"
       height="6"
       x="0"
       y="0" />
    <pattern
       id="EMFhbasepattern-96"
       patternUnits="userSpaceOnUse"
       width="6"
       height="6"
       x="0"
       y="0" />
    <pattern
       id="EMFhbasepattern-17"
       patternUnits="userSpaceOnUse"
       width="6"
       height="6"
       x="0"
       y="0" />
  </defs>
  <sodipodi:namedview
     id="base"
     pagecolor="#ffffff"
     bordercolor="#666666"
     borderopacity="1.0"
     inkscape:pageopacity="0.0"
     inkscape:pageshadow="2"
     inkscape:zoom="4"
     inkscape:cx="78.678223"
     inkscape:cy="57.48074"
     inkscape:document-units="mm"
     inkscape:current-layer="layer1"
     inkscape:document-rotation="0"
     showgrid="false"
     showborder="true"
     inkscape:showpageshadow="false"
     inkscape:window-width="1920"
     inkscape:window-height="1017"
     inkscape:window-x="-8"
     inkscape:window-y="-8"
     inkscape:window-maximized="1" />
  <metadata
     id="metadata5">
    <rdf:RDF>
      <cc:Work
         rdf:about="">
        <dc:format>image/svg+xml</dc:format>
        <dc:type
           rdf:resource="http://purl.org/dc/dcmitype/StillImage" />
        <dc:title />
      </cc:Work>
    </rdf:RDF>
  </metadata>
  <g
     inkscape:label="Layer 1"
     inkscape:groupmode="layer"
     id="layer1">
    <path
       style="fill:none;stroke:#000000;stroke-width:0.012648px;stroke-linecap:round;stroke-linejoin:round;stroke-miterlimit:4;stroke-dasharray:none;stroke-opacity:1"
       d="M 0.006324,31.993676 H 31.893676 V 0.006324 H 0.006324 Z"
       id="path847" />
    <path
       style="fill:none;stroke:#000000;stroke-width:0.012648px;stroke-linecap:round;stroke-linejoin:round;stroke-miterlimit:4;stroke-dasharray:none;stroke-opacity:1"
       d="m 24.918681,13.002526 -0.01556,-0.409544 -0.0389,-0.409545 -0.07002,-0.401742 -0.09726,-0.397843 L 24.572462,10.99381 24.424637,10.611568 24.249581,10.241029 24.047295,9.8860895 23.825559,9.5428529 23.57659,9.2152173 23.308171,8.9070842 23.020302,8.6184535 22.712982,8.3493241 22.386212,8.1035977 22.047771,7.8773732 21.689879,7.6784516 21.320317,7.5029327 20.942976,7.3508163 20.553963,7.2260028 l -0.396792,-0.097511 -0.404573,-0.066307 -0.404573,-0.042905 -0.408463,-0.015602 -0.408464,0.015602 -0.404572,0.042905 -0.404573,0.066307 -0.396793,0.097511 -0.389013,0.1248135 -0.377341,0.1521164 -0.369562,0.1755189 -0.354001,0.1989216 -0.342332,0.2262245 -0.32677,0.2457264 -0.30732,0.2691294 -0.287869,0.2886307 -0.268419,0.3081331 -0.248968,0.3276356 -0.221736,0.3432366 -0.202287,0.3549395 -0.175056,0.370539 -0.147824,0.382242 -0.124484,0.390042 -0.09726,0.397843 -0.07002,0.401742 -0.0389,0.409545 -0.01556,0.409544 0.01556,0.409544 0.0389,0.405644 0.07002,0.405644 0.09726,0.397843 0.124484,0.390042 0.147824,0.37834 0.175056,0.370541 0.202287,0.358839 0.221736,0.343236 0.248968,0.323736 0.268419,0.308133 0.287869,0.292531 0.30732,0.26913 0.32677,0.245726 0.342332,0.226224 0.354001,0.198922 0.369562,0.175519 0.377341,0.152116 0.389013,0.124814 0.396793,0.09361 0.404573,0.07021 0.404572,0.04291 0.408464,0.0156 0.408463,-0.0156 0.404573,-0.04291 0.404573,-0.07021 0.396792,-0.09361 0.389013,-0.124814 0.377341,-0.152116 0.369562,-0.175519 0.357892,-0.198922 0.338441,-0.226224 0.32677,-0.245726 0.30732,-0.26913 0.287869,-0.292531 0.268419,-0.308133 0.248969,-0.323736 0.221736,-0.343236 0.202286,-0.358839 0.175056,-0.370541 0.147825,-0.37834 0.124484,-0.390042 0.09726,-0.397843 0.07002,-0.405644 0.0389,-0.405644 z"
       id="path849" />
    <path
       id="path855"
       style="fill:none;stroke:#000000;stroke-width:0.012648px;stroke-linecap:round;stroke-linejoin:round;stroke-miterlimit:4;stroke-dasharray:none;stroke-opacity:1"
       d="m 11.630016,18.213489 -7.6363144,7.660426 v 2.121829 m 9.7486514,-7.660427 0.455145,0.300333 0.470705,0.27693 0.486266,0.245726 0.497935,0.214524 0.513497,0.18332 0.521277,0.152116 0.532947,0.124813 0.536836,0.08581 0.540727,0.05461 0.544619,0.0234 0.544617,-0.0078 0.540727,-0.04681 0.540727,-0.07411 0.532947,-0.109213 0.525167,-0.144315 0.513496,-0.171619 0.505717,-0.202821 0.494045,-0.237926 0.474596,-0.261328 0.459034,-0.292532 0.439584,-0.319834 0.424024,-0.347138 0.396793,-0.37054 0.377342,-0.397843 0.35011,-0.413444 0.326771,-0.440748 0.29954,-0.456349 0.268418,-0.471951 0.241188,-0.491453 0.210067,-0.503154 0.182836,-0.514855 0.147824,-0.522657 0.116704,-0.534358 0.08169,-0.538258 0.05446,-0.546059 0.01556,-0.546059 -0.01167,-0.546059 -0.05057,-0.542159 -0.07781,-0.542158 -0.11281,-0.530452 L 27.509497,10.34634 27.330551,9.827584 27.124375,9.3244301 26.887077,8.832977 26.618658,8.3571258 26.323009,7.8968759 26.004018,7.4561282 25.653907,7.0387832 25.280455,6.6409404 24.883663,6.2665 24.46742,5.9154622 24.027835,5.5956274 23.568801,5.2991957 23.098095,5.0300666 22.60794,4.792141 22.102223,4.5854186 21.588728,4.4059992 21.063561,4.2616835 20.530614,4.1485714 l -0.536838,-0.081909 -0.544618,-0.046805 -0.540727,-0.015602 -0.544617,0.019503 -0.540727,0.050705 -0.540727,0.08581 -0.529057,0.1170123 -0.525166,0.1482162 -0.513497,0.1833197 -0.501826,0.2106226 -0.486265,0.2418262 -0.474597,0.2691291 -0.455144,0.3003323 -0.435693,0.3276356 -0.416244,0.3510377 -0.392903,0.378341 -0.369561,0.4017431 -0.346222,0.4212456 -0.31899,0.4407477 -0.29176,0.4602496 -0.264527,0.479752 -0.233408,0.4914528 -0.202287,0.5070544 -0.171165,0.5187567 -0.143935,0.526556 -0.108923,0.534358 -0.07391,0.542159 -0.042796,0.542159 -0.011673,0.546058 0.023337,0.546059 0.05446,0.542159 0.08947,0.538258 0.120594,0.534358 0.151715,0.522656 0.182836,0.514855 0.213956,0.503155 0.245079,0.487552 0.272308,0.471952 0.30343,0.452449 m -7.6362944,9.782253 h 2.1123375 l 7.6363139,-7.660427" />
    <path
       style="fill:#cccccc;stroke:none;stroke-width:0.999999;fill-opacity:1"
       d="M 15.152839,101.80464 V 97.985261 L 29.515946,83.493007 c 7.899708,-7.970739 14.388707,-14.562194 14.419997,-14.647678 0.03129,-0.08548 -0.180268,-0.500121 -0.470127,-0.921415 -0.979499,-1.423653 -2.472753,-4.325788 -3.263973,-6.343522 -4.250304,-10.838934 -2.737835,-22.863334 4.072136,-32.374163 1.323711,-1.8487 4.525251,-5.181265 6.321513,-6.580223 5.216461,-4.062668 10.966148,-6.430135 17.413579,-7.170144 2.554478,-0.293192 7.139769,-0.122243 9.63433,0.359189 14.116166,2.724312 24.573669,13.34216 27.254069,27.671956 0.36632,1.958389 0.50696,7.212329 0.25121,9.384324 -0.98379,8.354991 -4.93677,16.036471 -11.065046,21.50177 -9.067227,8.0863 -21.602929,10.714812 -33.059141,6.931909 -2.338793,-0.772281 -5.680037,-2.360377 -7.560773,-3.593642 -0.756517,-0.496074 -1.43287,-0.901954 -1.503008,-0.901954 -0.07014,0 -6.610441,6.483286 -14.534009,14.407301 L 23.020216,105.62402 H 19.086528 15.152839 Z M 75.256916,71.586089 c 1.914527,-0.310263 4.75008,-1.212402 6.394276,-2.034357 6.247966,-3.123441 10.753387,-9.021772 12.181179,-15.947146 0.520609,-2.525163 0.520609,-6.396286 0,-8.921449 -1.464242,-7.10217 -6.162134,-13.119508 -12.584677,-16.119197 -3.013339,-1.407399 -5.309428,-1.947798 -8.819205,-2.075656 -3.045472,-0.110943 -5.383968,0.188859 -7.808119,1.001025 -7.120705,2.385655 -12.382755,7.688619 -14.631673,14.745437 -4.24088,13.307345 4.534398,27.429775 18.285539,29.427703 1.739334,0.25271 5.184583,0.215035 6.98268,-0.07636 z"
       id="path870"
       transform="scale(0.26458333)" />
  </g>
</svg>
