<?xml version="1.0" encoding="UTF-8" standalone="no"?>
<svg
   xmlns:dc="http://purl.org/dc/elements/1.1/"
   xmlns:cc="http://creativecommons.org/ns#"
   xmlns:rdf="http://www.w3.org/1999/02/22-rdf-syntax-ns#"
   xmlns:svg="http://www.w3.org/2000/svg"
   xmlns="http://www.w3.org/2000/svg"
   xmlns:sodipodi="http://sodipodi.sourceforge.net/DTD/sodipodi-0.dtd"
   xmlns:inkscape="http://www.inkscape.org/namespaces/inkscape"
   width="32mm"
   height="32mm"
   viewBox="0 0 32 32"
   version="1.1"
   id="svg8"
   inkscape:version="1.0.1 (3bc2e813f5, 2020-09-07)"
   sodipodi:docname="settings.svg">
  <defs
     id="defs2">
    <pattern
       id="EMFhbasepattern"
       patternUnits="userSpaceOnUse"
       width="6"
       height="6"
       x="0"
       y="0" />
    <pattern
       id="EMFhbasepattern-8"
       patternUnits="userSpaceOnUse"
       width="6"
       height="6"
       x="0"
       y="0" />
    <pattern
       id="EMFhbasepattern-2"
       patternUnits="userSpaceOnUse"
       width="6"
       height="6"
       x="0"
       y="0" />
  </defs>
  <sodipodi:namedview
     id="base"
     pagecolor="#ffffff"
     bordercolor="#666666"
     borderopacity="1.0"
     inkscape:pageopacity="0.0"
     inkscape:pageshadow="2"
     inkscape:zoom="5.6568543"
     inkscape:cx="64.174042"
     inkscape:cy="55.374931"
     inkscape:document-units="mm"
     inkscape:current-layer="layer1"
     inkscape:document-rotation="0"
     showgrid="false"
     showborder="true"
     inkscape:showpageshadow="false"
     inkscape:window-width="1920"
     inkscape:window-height="1017"
     inkscape:window-x="-8"
     inkscape:window-y="-8"
     inkscape:window-maximized="1" />
  <metadata
     id="metadata5">
    <rdf:RDF>
      <cc:Work
         rdf:about="">
        <dc:format>image/svg+xml</dc:format>
        <dc:type
           rdf:resource="http://purl.org/dc/dcmitype/StillImage" />
        <dc:title></dc:title>
      </cc:Work>
    </rdf:RDF>
  </metadata>
  <g
     inkscape:label="Layer 1"
     inkscape:groupmode="layer"
     id="layer1">
    <path
       id="path918"
       style="fill:none;stroke:#000000;stroke-width:0.012648px;stroke-linecap:round;stroke-linejoin:round;stroke-miterlimit:4;stroke-dasharray:none;stroke-opacity:1"
       d="m 13.550022,7.1482406 -0.43127,0.1375209 -0.422093,0.1466889 -0.422094,0.1741933 -0.403742,0.1925286 -0.394565,0.2108654 M 14.146459,4.150286 13.550022,7.1482406 M 17.853541,4.150286 17.330513,4.076941 16.798307,4.031101 16.266102,4.003597 h -0.532204 l -0.532206,0.027504 -0.532204,0.04584 -0.523029,0.073345 M 18.449978,7.1482406 17.853541,4.150286 m 2.6702,3.8597517 L 20.129176,7.7991723 19.716258,7.6066437 19.303341,7.4324504 18.881247,7.2857615 18.449978,7.1482406 M 23.06548,6.3047793 20.523741,8.0100377 M 25.6898,8.926844 25.368643,8.5051133 25.029133,8.1017186 24.671271,7.7074922 24.295056,7.3316019 23.900491,6.9740477 23.496749,6.6256613 23.06548,6.3047793 m 0.926769,5.1707847 1.697551,-2.54872 m -19.3887761,0 1.7067259,2.54872 M 8.9253444,6.3047793 8.5032508,6.6256613 8.0995091,6.9740477 7.7049434,7.3316019 7.3287295,7.7074922 6.9708681,8.1017186 6.6313579,8.5051133 6.3010239,8.926844 M 11.476258,8.0100377 8.9253444,6.3047793 m 0,19.3812747 2.5509136,-1.696092 m -5.1752341,-0.925974 0.330334,0.421731 0.3395102,0.412562 0.3578614,0.394227 0.3762139,0.375889 0.3945657,0.357556 0.4037417,0.339217 0.4220936,0.320884 m -0.9175946,-5.170786 -1.7067259,2.54872 m 0.8533632,-4.611533 0.1284627,0.430899 0.1468156,0.42173 0.1743427,0.412563 0.1926953,0.403394 0.2110464,0.394227 m -3.8630735,-2.658736 3.0097108,0.595923 m -3.0097108,-4.308987 -0.073408,0.522579 -0.04588,0.531748 -0.018352,0.531747 v 0.531748 l 0.018352,0.531746 0.04588,0.531748 0.073408,0.531748 m 3.0097108,-4.308987 -3.0097108,0.595923 m 3.8630735,-2.667904 -0.2110464,0.394226 -0.1926953,0.412563 -0.1743427,0.412563 -0.1468156,0.42173 -0.1284627,0.430899 m 17.6912249,0 -0.128461,-0.430899 -0.146816,-0.42173 -0.174344,-0.412563 -0.192694,-0.412563 -0.211048,-0.394226 m 3.863075,2.667904 -3.009712,-0.595923 m 3.009712,4.308987 0.06423,-0.531748 0.05506,-0.531748 0.01835,-0.531746 v -0.531748 l -0.01835,-0.531747 -0.05506,-0.531748 -0.06423,-0.522579 m -3.009712,4.308987 3.009712,-0.595923 m -3.863075,2.658736 0.211048,-0.394227 0.192694,-0.403394 0.174344,-0.412563 0.146816,-0.42173 0.128461,-0.430899 m 0.844188,4.611533 -1.697551,-2.54872 m -0.926769,5.170786 0.431269,-0.320884 0.403742,-0.339217 0.394565,-0.357556 0.376215,-0.375889 0.357862,-0.394227 0.33951,-0.412562 0.321157,-0.421731 m -5.166059,0.925974 2.541739,1.696092 m -4.615502,-0.843462 0.431269,-0.128354 0.422094,-0.155856 0.412917,-0.165027 0.412918,-0.192529 0.394565,-0.210864 m -2.6702,3.859752 0.596437,-3.007122 m -4.303519,3.007122 0.523029,0.06418 0.532204,0.05501 0.532206,0.01834 h 0.532204 l 0.532205,-0.01834 0.532206,-0.05501 0.523028,-0.06418 m -4.303519,-3.007122 0.596437,3.007122 m -2.670201,-3.859752 0.394565,0.210864 0.403742,0.192529 0.422094,0.165027 0.422093,0.155856 0.43127,0.128354" />
    <path
       style="fill:none;stroke:#000000;stroke-width:0.012648px;stroke-linecap:round;stroke-linejoin:round;stroke-miterlimit:4;stroke-dasharray:none;stroke-opacity:1"
       d="M 0.006324,31.993676 H 31.993676 V 0.006324 H 0.006324 Z"
       id="path920" />
    <path
       style="fill:none;stroke:#000000;stroke-width:0.012648px;stroke-linecap:round;stroke-linejoin:round;stroke-miterlimit:4;stroke-dasharray:none;stroke-opacity:1"
       d="m 20.000713,15.995416 -0.0092,-0.28421 -0.0367,-0.28421 -0.04588,-0.275041 -0.07341,-0.284211 -0.09176,-0.265873 -0.110111,-0.265873 -0.128463,-0.256706 -0.137639,-0.247538 -0.165168,-0.229201 -0.183518,-0.220033 -0.192695,-0.210865 -0.211047,-0.19253 -0.220223,-0.183361 -0.229398,-0.165026 -0.247751,-0.146688 -0.256927,-0.119185 -0.266102,-0.110017 -0.266102,-0.09168 -0.275279,-0.07334 -0.284454,-0.04584 -0.284454,-0.03667 -0.284455,-0.0092 -0.284454,0.0092 -0.284454,0.03667 -0.284455,0.04584 -0.275278,0.07334 -0.266103,0.09168 -0.266102,0.110017 -0.256927,0.119185 -0.24775,0.146688 -0.229399,0.165026 -0.220223,0.183361 -0.211047,0.19253 -0.192694,0.210865 -0.183519,0.220033 -0.165168,0.229201 -0.146814,0.247538 -0.128464,0.256706 -0.100935,0.265873 -0.09176,0.265873 -0.07341,0.284211 -0.04588,0.275041 -0.0367,0.28421 -0.0092,0.28421 0.0092,0.28421 0.0367,0.28421 0.04588,0.284209 0.07341,0.275042 0.09176,0.275042 0.100935,0.256705 0.128464,0.256706 0.146814,0.247537 0.165168,0.23837 0.183519,0.220033 0.192694,0.210865 0.211047,0.19253 0.220223,0.174193 0.229399,0.165026 0.24775,0.146687 0.256927,0.128355 0.266102,0.110015 0.266103,0.09168 0.275278,0.06418 0.284455,0.05501 0.284454,0.02751 0.284454,0.0092 0.284455,-0.0092 0.284454,-0.02751 0.284454,-0.05501 0.275279,-0.06418 0.266102,-0.09168 0.266102,-0.110015 0.256927,-0.128355 0.247751,-0.146687 0.229398,-0.165026 0.220223,-0.174193 0.211047,-0.19253 0.192695,-0.210865 0.183518,-0.220033 0.165168,-0.23837 0.137639,-0.247537 0.128463,-0.256706 0.110111,-0.256705 0.09176,-0.275042 0.07341,-0.275042 0.04588,-0.284209 0.0367,-0.28421 z"
       id="path922" />
    <path
       style="fill:#000000;stroke:#000000;stroke-width:0.999999"
       d="m 57.908909,105.65783 c -1.252977,-0.0747 -4.289387,-0.41564 -4.36376,-0.49002 -0.02226,-0.0223 -0.541685,-2.57621 -1.154288,-5.675451 l -1.113824,-5.634988 -0.661539,-0.201037 c -1.62836,-0.494847 -4.381794,-1.591325 -5.758842,-2.293299 -0.941548,-0.47997 -1.515832,-0.725496 -1.59099,-0.680205 -0.06469,0.03898 -2.239221,1.475688 -4.8323,3.192683 l -4.71469,3.121808 -0.765388,-0.593767 c -3.211856,-2.491669 -5.759643,-5.040297 -8.407499,-8.410272 l -0.648967,-0.825954 3.173267,-4.731212 c 1.745297,-2.602167 3.18493,-4.7798 3.199185,-4.839185 0.01426,-0.05938 -0.265415,-0.680979 -0.621488,-1.38132 -1.051984,-2.069086 -1.992409,-4.432027 -2.447625,-6.149979 -0.09176,-0.346286 -0.123294,-0.37429 -0.516006,-0.458212 -0.230051,-0.04916 -2.789821,-0.557235 -5.688379,-1.129052 L 15.725672,67.4387 15.581049,66.373317 c -0.2831,-2.085479 -0.347822,-3.222765 -0.342316,-6.015129 0.0054,-2.731493 0.104248,-4.326541 0.3818,-6.160062 l 0.102934,-0.679984 0.365654,-0.07767 c 0.201109,-0.04272 2.75521,-0.549049 5.675779,-1.125176 l 5.310126,-1.047503 0.465205,-1.463209 c 0.549912,-1.729638 1.176467,-3.247988 2.105325,-5.101896 l 0.677365,-1.351954 -3.177569,-4.754525 c -1.747663,-2.614988 -3.190369,-4.782983 -3.206015,-4.817765 -0.03245,-0.07214 0.985957,-1.3727 2.096061,-2.676798 1.735142,-2.038364 5.023807,-5.173067 6.928728,-6.604356 l 0.776227,-0.583228 4.812125,3.220599 4.812124,3.220599 1.173358,-0.613192 c 1.640724,-0.857437 2.834053,-1.362014 4.926448,-2.083057 l 1.808549,-0.623229 1.119147,-5.600511 c 0.615531,-3.080282 1.165591,-5.629216 1.222356,-5.664298 0.136774,-0.08453 2.151241,-0.335993 3.578081,-0.446645 1.46655,-0.113731 5.09271,-0.113731 6.55926,0 1.42684,0.110652 3.441307,0.362114 3.578081,0.446645 0.05676,0.03508 0.606682,2.584016 1.22204,5.664298 l 1.118832,5.600511 1.676281,0.574935 c 2.022009,0.693513 3.097478,1.143569 4.891463,2.046952 l 1.359028,0.684355 4.784516,-3.212057 4.784516,-3.212056 0.801684,0.586664 c 2.490042,1.822186 6.26304,5.589023 8.367087,8.353424 l 0.664057,0.87247 -3.185977,4.812162 -3.185977,4.812161 0.713431,1.430631 c 0.943156,1.891292 1.497401,3.239403 2.062346,5.016325 l 0.465559,1.464325 5.266206,1.03859 c 2.896416,0.571225 5.450296,1.07787 5.675316,1.125877 0.47226,0.100764 0.38681,-0.202714 0.70628,2.508231 0.15361,1.303576 0.18805,2.109935 0.19062,4.463612 0.003,2.569196 -0.0222,3.091799 -0.23686,4.94766 -0.13201,1.14127 -0.24758,2.08032 -0.25683,2.086777 -0.009,0.0065 -2.38342,0.477576 -5.275932,1.046932 -2.892509,0.569356 -5.447352,1.075289 -5.677428,1.124298 -0.39296,0.0837 -0.42421,0.111456 -0.515438,0.457758 -0.452492,1.717681 -1.645158,4.678244 -2.609163,6.476741 -0.263311,0.491246 -0.478747,0.938988 -0.478747,0.994982 0,0.05599 1.430821,2.247487 3.179604,4.869987 l 3.179605,4.768182 -0.807165,1.04274 c -1.343255,1.735288 -2.073241,2.56259 -3.693466,4.185847 -1.66874,1.671863 -2.778278,2.653731 -4.340359,3.840931 -0.990529,0.752813 -0.991373,0.753231 -1.221358,0.603472 -0.126578,-0.08242 -2.286561,-1.520312 -4.79996,-3.195308 L 77.583876,90.607934 76.1856,91.312399 c -1.557121,0.784492 -4.089811,1.811287 -5.502769,2.230915 -0.509449,0.1513 -0.951806,0.303745 -0.983015,0.338768 -0.03121,0.03502 -0.541021,2.529713 -1.132917,5.543755 -0.591896,3.014043 -1.0955,5.545363 -1.119119,5.625163 -0.04904,0.16569 -0.135895,0.18158 -2.335221,0.42724 -1.796338,0.20064 -5.359784,0.28948 -7.20365,0.17959 z m 5.68449,-30.357307 c 4.678507,-1.008344 8.49288,-4.007478 10.524149,-8.274844 0.993954,-2.088134 1.400691,-3.758825 1.483361,-6.092967 0.09833,-2.77616 -0.446171,-5.105958 -1.794864,-7.679887 -0.81593,-1.557171 -1.954843,-2.974088 -3.40008,-4.230027 -1.167051,-1.01419 -1.942212,-1.537017 -3.130645,-2.111542 -4.466081,-2.15904 -9.248101,-2.138994 -13.707021,0.05746 -2.624393,1.292768 -5.11664,3.744052 -6.558791,6.45099 -0.715266,1.342565 -1.306622,3.241198 -1.569199,5.038136 -0.186315,1.275056 -0.128803,3.496855 0.124799,4.821077 0.215063,1.122988 0.790264,2.855363 1.289997,3.885175 1.956578,4.031975 5.884389,7.126648 10.263318,8.086338 1.369196,0.300075 1.904493,0.345407 3.707301,0.313952 1.410506,-0.02461 1.853618,-0.06685 2.767675,-0.263857 z"
       id="path1007"
       transform="scale(0.26458333)" />
  </g>
</svg>
